<svg version="1.2" xmlns="http://www.w3.org/2000/svg" viewBox="0 0 500 500" width="500" height="500">
	<title>scuridark</title>
	<style>
		.s0 { fill: #ffffff } 
	</style>
	<path id="Shape 1" class="s0" d="m108 243c5.8-1.9 5.5-3 2-6-3.5-3-34.1-31.6-38-35-3.9-3.4-5.8-7.5 1-10 6.8-2.5 52.8-7.6 59-7 6.2 0.6 4.5-0.8 2-6-2.5-5.2-17.2-30.5-20-38-2.8-7.5-0.5-7.6 6-8 6.5-0.4 34.6 5.6 44 9 9.4 3.4 8.1 2.4 8-3-0.1-5.4-4.8-44.4-5-48-0.2-3.6 3.9-5.5 12 0 11.9 5.4 43.3 30.3 47 33 3.7 2.7 3.4 2.5 5-2 1.6-4.5 14.9-40.8 19-52 3.1-11.4 8.4-10.1 11-8 2.6 2.1 22.3 39.4 25 45 2.7 5.6 1.2 5.9 6 0 4.8-5.9 18.7-20.4 28-29 9.3-8.6 11.6-8.1 14 8 5.2 20 4.8 53.4 5 55 4.3-5.1 34.4-13.7 38-18 4.2-5.1 40-57.2 42-59 2-1.8 4.1-3.5 12 12 7.9 15.5 31.8 56.2 35 92 3.2 35.8-27.1 46.7-38 52-10.9 5.3-16.2 2.9-20 6-4.6 3.8 0.1 6.6 9 9 8.9 2.4 39.8 19.1 47 25 6.1 5 6.8 8.3 2 10-4.8 1.7-43.1 17.6-48 19-4.9 1.4-7.8 1.3-1.3 6.3 1 0.8 22.7 25.2 30.3 35.7 7.6 10.5 4.3 11.7-2 12-6.3 0.3-31.1 0.8-37 0-5.9-0.8-9.3 0-7 6 2.3 6 9.4 26.6 14 37 4.6 10.4 0.5 11.6-7 9-7.5-2.6-27.2-7.8-37-12-9.8-4.2-14.9-7.8-15-4-0.1 3.8-0.7 40.6-1 52-0.3 11.4-4.7 12.7-11 8-6.3-4.7-42.3-37.5-46.3-43-1.2-5.5-6-6-7.7-1-1.5 7.6-19.6 38-25 47-4.7 9.2-9.4 8.9-13 1-3.6-7.9-13.5-34-16-41-2.5-7-5.3-2.7-9 1-3.7 3.7-20 18.1-31 26-11 7.9-11.8 3.6-12-2-0.2-5.6-0.3-17.3-0.5-29.7-0.1-3.6 1.9-8.3-7.5-3.3-9.4 5-34.3 17.3-46 21-4.6 1.4-7.4 1.6-7.9-2.7 0.2-4.9 1.2-10.7 2-14.3-15.1 2.6-40-18.5-52.1-37-12.1-18.5-38.5-75-41-80-2.5-5-2.4-9 4-9 6.4 0 25 1 25 1 2.8-9.5 42.2-28.1 48-30z"/>
</svg>